# xmcd CD database file
#
# Track frame offsets:
#	150
#	17791
#	41346
#	58987
#	82541
#
# Disc length: 2106 seconds
#
# Revision: 2
# Processed by: cddbd v1.5.2PL0 Copyright (c) Steve Scherf et al.
# Submitted via: CDex 1.70beta2
#
DISCID=30083805
DTITLE=花色ヘプタグラム - 御式村便り うたとおはなしのスペシャルCD
DYEAR=2012
DGENRE=Game
TTITLE0=恋色の花咲く頃
TTITLE1=故郷
TTITLE2=恋色の花咲く頃(Instrumental)
TTITLE3=故郷(Instrumental)
TTITLE4=花色ヘプタグラムドラマCD「御式村パトロール記」
EXTD=YEAR: 2012
EXTT0=
EXTT1=
EXTT2=
EXTT3=
EXTT4=
PLAYORDER=
